<mxfile host="Electron" modified="2023-06-05T05:20:46.924Z" agent="Mozilla/5.0 (X11; Linux x86_64) AppleWebKit/537.36 (KHTML, like Gecko) draw.io/21.2.8 Chrome/112.0.5615.165 Electron/24.2.0 Safari/537.36" etag="zUwqNvbImsKiYPjKG-0i" version="21.2.8" type="device">
  <diagram id="C5RBs43oDa-KdzZeNtuy" name="Page-1">
    <mxGraphModel dx="462" dy="822" grid="1" gridSize="10" guides="1" tooltips="1" connect="1" arrows="1" fold="1" page="1" pageScale="1" pageWidth="827" pageHeight="1169" math="0" shadow="0">
      <root>
        <mxCell id="WIyWlLk6GJQsqaUBKTNV-0" />
        <mxCell id="WIyWlLk6GJQsqaUBKTNV-1" parent="WIyWlLk6GJQsqaUBKTNV-0" />
        <mxCell id="6NoogW3i70NfOqa1rGPb-4" value="" style="edgeStyle=orthogonalEdgeStyle;rounded=0;orthogonalLoop=1;jettySize=auto;html=1;" edge="1" parent="WIyWlLk6GJQsqaUBKTNV-1" source="6NoogW3i70NfOqa1rGPb-0" target="6NoogW3i70NfOqa1rGPb-3">
          <mxGeometry relative="1" as="geometry" />
        </mxCell>
        <mxCell id="6NoogW3i70NfOqa1rGPb-0" value="multByAbs( x:int, y:int ) -&amp;gt; int:" style="rounded=0;whiteSpace=wrap;html=1;fillColor=#fff2cc;strokeColor=#d6b656;" vertex="1" parent="WIyWlLk6GJQsqaUBKTNV-1">
          <mxGeometry x="310" y="70" width="180" height="90" as="geometry" />
        </mxCell>
        <mxCell id="6NoogW3i70NfOqa1rGPb-6" value="" style="edgeStyle=orthogonalEdgeStyle;rounded=0;orthogonalLoop=1;jettySize=auto;html=1;" edge="1" parent="WIyWlLk6GJQsqaUBKTNV-1" source="6NoogW3i70NfOqa1rGPb-3" target="6NoogW3i70NfOqa1rGPb-5">
          <mxGeometry relative="1" as="geometry" />
        </mxCell>
        <mxCell id="6NoogW3i70NfOqa1rGPb-3" value="abs_y = fabs (y)" style="whiteSpace=wrap;html=1;rounded=0;fillColor=#d5e8d4;strokeColor=#82b366;" vertex="1" parent="WIyWlLk6GJQsqaUBKTNV-1">
          <mxGeometry x="340" y="255" width="120" height="60" as="geometry" />
        </mxCell>
        <mxCell id="6NoogW3i70NfOqa1rGPb-8" value="TRUE" style="edgeStyle=orthogonalEdgeStyle;rounded=0;orthogonalLoop=1;jettySize=auto;html=1;" edge="1" parent="WIyWlLk6GJQsqaUBKTNV-1" source="6NoogW3i70NfOqa1rGPb-5" target="6NoogW3i70NfOqa1rGPb-7">
          <mxGeometry relative="1" as="geometry" />
        </mxCell>
        <mxCell id="6NoogW3i70NfOqa1rGPb-10" value="FALSE" style="edgeStyle=orthogonalEdgeStyle;rounded=0;orthogonalLoop=1;jettySize=auto;html=1;" edge="1" parent="WIyWlLk6GJQsqaUBKTNV-1" source="6NoogW3i70NfOqa1rGPb-5" target="6NoogW3i70NfOqa1rGPb-9">
          <mxGeometry relative="1" as="geometry" />
        </mxCell>
        <mxCell id="6NoogW3i70NfOqa1rGPb-5" value="if abs_y &amp;lt; 0" style="whiteSpace=wrap;html=1;rounded=0;fillColor=#d5e8d4;strokeColor=#82b366;" vertex="1" parent="WIyWlLk6GJQsqaUBKTNV-1">
          <mxGeometry x="340" y="395" width="120" height="60" as="geometry" />
        </mxCell>
        <mxCell id="6NoogW3i70NfOqa1rGPb-7" value="return -1" style="whiteSpace=wrap;html=1;rounded=0;fillColor=#f8cecc;strokeColor=#b85450;" vertex="1" parent="WIyWlLk6GJQsqaUBKTNV-1">
          <mxGeometry x="120" y="395" width="120" height="60" as="geometry" />
        </mxCell>
        <mxCell id="6NoogW3i70NfOqa1rGPb-12" value="" style="edgeStyle=orthogonalEdgeStyle;rounded=0;orthogonalLoop=1;jettySize=auto;html=1;" edge="1" parent="WIyWlLk6GJQsqaUBKTNV-1" source="6NoogW3i70NfOqa1rGPb-9" target="6NoogW3i70NfOqa1rGPb-11">
          <mxGeometry relative="1" as="geometry" />
        </mxCell>
        <mxCell id="6NoogW3i70NfOqa1rGPb-9" value="result:int = 0" style="whiteSpace=wrap;html=1;rounded=0;fillColor=#d5e8d4;strokeColor=#82b366;" vertex="1" parent="WIyWlLk6GJQsqaUBKTNV-1">
          <mxGeometry x="340" y="535" width="120" height="60" as="geometry" />
        </mxCell>
        <mxCell id="6NoogW3i70NfOqa1rGPb-14" value="" style="edgeStyle=orthogonalEdgeStyle;rounded=0;orthogonalLoop=1;jettySize=auto;html=1;" edge="1" parent="WIyWlLk6GJQsqaUBKTNV-1" source="6NoogW3i70NfOqa1rGPb-11" target="6NoogW3i70NfOqa1rGPb-13">
          <mxGeometry relative="1" as="geometry" />
        </mxCell>
        <mxCell id="6NoogW3i70NfOqa1rGPb-11" value="i:int = 0" style="whiteSpace=wrap;html=1;rounded=0;fillColor=#d5e8d4;strokeColor=#82b366;" vertex="1" parent="WIyWlLk6GJQsqaUBKTNV-1">
          <mxGeometry x="340" y="675" width="120" height="60" as="geometry" />
        </mxCell>
        <mxCell id="6NoogW3i70NfOqa1rGPb-16" value="TRUE" style="edgeStyle=orthogonalEdgeStyle;rounded=0;orthogonalLoop=1;jettySize=auto;html=1;exitX=1;exitY=0.25;exitDx=0;exitDy=0;" edge="1" parent="WIyWlLk6GJQsqaUBKTNV-1" source="6NoogW3i70NfOqa1rGPb-13" target="6NoogW3i70NfOqa1rGPb-15">
          <mxGeometry relative="1" as="geometry">
            <mxPoint x="470" y="830" as="sourcePoint" />
          </mxGeometry>
        </mxCell>
        <mxCell id="6NoogW3i70NfOqa1rGPb-21" value="FALSE" style="edgeStyle=orthogonalEdgeStyle;rounded=0;orthogonalLoop=1;jettySize=auto;html=1;" edge="1" parent="WIyWlLk6GJQsqaUBKTNV-1" source="6NoogW3i70NfOqa1rGPb-13" target="6NoogW3i70NfOqa1rGPb-20">
          <mxGeometry relative="1" as="geometry" />
        </mxCell>
        <mxCell id="6NoogW3i70NfOqa1rGPb-13" value="while i &amp;lt; abs_y:" style="whiteSpace=wrap;html=1;rounded=0;fillColor=#d5e8d4;strokeColor=#82b366;" vertex="1" parent="WIyWlLk6GJQsqaUBKTNV-1">
          <mxGeometry x="340" y="815" width="120" height="60" as="geometry" />
        </mxCell>
        <mxCell id="6NoogW3i70NfOqa1rGPb-18" value="" style="edgeStyle=orthogonalEdgeStyle;rounded=0;orthogonalLoop=1;jettySize=auto;html=1;" edge="1" parent="WIyWlLk6GJQsqaUBKTNV-1" source="6NoogW3i70NfOqa1rGPb-15" target="6NoogW3i70NfOqa1rGPb-17">
          <mxGeometry relative="1" as="geometry" />
        </mxCell>
        <mxCell id="6NoogW3i70NfOqa1rGPb-15" value="result = result + x" style="whiteSpace=wrap;html=1;rounded=0;fillColor=#d5e8d4;strokeColor=#82b366;" vertex="1" parent="WIyWlLk6GJQsqaUBKTNV-1">
          <mxGeometry x="540" y="800" width="120" height="60" as="geometry" />
        </mxCell>
        <mxCell id="6NoogW3i70NfOqa1rGPb-19" style="edgeStyle=orthogonalEdgeStyle;rounded=0;orthogonalLoop=1;jettySize=auto;html=1;exitX=0;exitY=0.5;exitDx=0;exitDy=0;entryX=1;entryY=0.75;entryDx=0;entryDy=0;" edge="1" parent="WIyWlLk6GJQsqaUBKTNV-1" source="6NoogW3i70NfOqa1rGPb-17" target="6NoogW3i70NfOqa1rGPb-13">
          <mxGeometry relative="1" as="geometry" />
        </mxCell>
        <mxCell id="6NoogW3i70NfOqa1rGPb-17" value="i += 1" style="whiteSpace=wrap;html=1;rounded=0;fillColor=#d5e8d4;strokeColor=#82b366;" vertex="1" parent="WIyWlLk6GJQsqaUBKTNV-1">
          <mxGeometry x="540" y="870" width="120" height="60" as="geometry" />
        </mxCell>
        <mxCell id="6NoogW3i70NfOqa1rGPb-20" value="return result" style="whiteSpace=wrap;html=1;rounded=0;fillColor=#d5e8d4;strokeColor=#82b366;" vertex="1" parent="WIyWlLk6GJQsqaUBKTNV-1">
          <mxGeometry x="340" y="955" width="120" height="60" as="geometry" />
        </mxCell>
        <mxCell id="6NoogW3i70NfOqa1rGPb-22" value="&lt;h1&gt;Ejercicio 2&lt;/h1&gt;&lt;div&gt;El primer if, no se puede cumplir la condicion TRUE. Podemos verlo en el diagrama marcado en rojo.&lt;/div&gt;&lt;div&gt;&amp;nbsp;fabs(y) (del anterior ejercicio) va a devolver el valor absoluto. Este nunca va a ser negativo.&lt;/div&gt;" style="text;html=1;strokeColor=none;fillColor=none;spacing=5;spacingTop=-20;whiteSpace=wrap;overflow=hidden;rounded=0;" vertex="1" parent="WIyWlLk6GJQsqaUBKTNV-1">
          <mxGeometry x="560" y="55" width="190" height="165" as="geometry" />
        </mxCell>
        <mxCell id="6NoogW3i70NfOqa1rGPb-23" value="&lt;h1&gt;Ejercicio 3&lt;/h1&gt;&lt;div&gt;Con un solo test ya cubrimos todas las branches posibles y por ende, las lineas. (SIn contar las de fabs(y))&lt;/div&gt;" style="text;html=1;strokeColor=none;fillColor=none;spacing=5;spacingTop=-20;whiteSpace=wrap;overflow=hidden;rounded=0;" vertex="1" parent="WIyWlLk6GJQsqaUBKTNV-1">
          <mxGeometry x="560" y="220" width="190" height="120" as="geometry" />
        </mxCell>
        <mxCell id="6NoogW3i70NfOqa1rGPb-24" value="" style="shape=table;startSize=0;container=1;collapsible=0;childLayout=tableLayout;" vertex="1" parent="WIyWlLk6GJQsqaUBKTNV-1">
          <mxGeometry x="560" y="340" width="240" height="60" as="geometry" />
        </mxCell>
        <mxCell id="6NoogW3i70NfOqa1rGPb-25" value="" style="shape=tableRow;horizontal=0;startSize=0;swimlaneHead=0;swimlaneBody=0;strokeColor=inherit;top=0;left=0;bottom=0;right=0;collapsible=0;dropTarget=0;fillColor=none;points=[[0,0.5],[1,0.5]];portConstraint=eastwest;" vertex="1" parent="6NoogW3i70NfOqa1rGPb-24">
          <mxGeometry width="240" height="30" as="geometry" />
        </mxCell>
        <mxCell id="6NoogW3i70NfOqa1rGPb-26" value="" style="shape=partialRectangle;html=1;whiteSpace=wrap;connectable=0;strokeColor=#666666;overflow=hidden;fillColor=#f5f5f5;top=0;left=0;bottom=0;right=0;pointerEvents=1;fontColor=#333333;" vertex="1" parent="6NoogW3i70NfOqa1rGPb-25">
          <mxGeometry width="60" height="30" as="geometry">
            <mxRectangle width="60" height="30" as="alternateBounds" />
          </mxGeometry>
        </mxCell>
        <mxCell id="6NoogW3i70NfOqa1rGPb-27" value="x" style="shape=partialRectangle;html=1;whiteSpace=wrap;connectable=0;strokeColor=#82b366;overflow=hidden;fillColor=#d5e8d4;top=0;left=0;bottom=0;right=0;pointerEvents=1;" vertex="1" parent="6NoogW3i70NfOqa1rGPb-25">
          <mxGeometry x="60" width="60" height="30" as="geometry">
            <mxRectangle width="60" height="30" as="alternateBounds" />
          </mxGeometry>
        </mxCell>
        <mxCell id="6NoogW3i70NfOqa1rGPb-28" value="y" style="shape=partialRectangle;html=1;whiteSpace=wrap;connectable=0;strokeColor=#82b366;overflow=hidden;fillColor=#d5e8d4;top=0;left=0;bottom=0;right=0;pointerEvents=1;" vertex="1" parent="6NoogW3i70NfOqa1rGPb-25">
          <mxGeometry x="120" width="60" height="30" as="geometry">
            <mxRectangle width="60" height="30" as="alternateBounds" />
          </mxGeometry>
        </mxCell>
        <mxCell id="6NoogW3i70NfOqa1rGPb-29" value="res" style="shape=partialRectangle;html=1;whiteSpace=wrap;connectable=0;strokeColor=#82b366;overflow=hidden;fillColor=#d5e8d4;top=0;left=0;bottom=0;right=0;pointerEvents=1;" vertex="1" parent="6NoogW3i70NfOqa1rGPb-25">
          <mxGeometry x="180" width="60" height="30" as="geometry">
            <mxRectangle width="60" height="30" as="alternateBounds" />
          </mxGeometry>
        </mxCell>
        <mxCell id="6NoogW3i70NfOqa1rGPb-30" value="" style="shape=tableRow;horizontal=0;startSize=0;swimlaneHead=0;swimlaneBody=0;strokeColor=inherit;top=0;left=0;bottom=0;right=0;collapsible=0;dropTarget=0;fillColor=none;points=[[0,0.5],[1,0.5]];portConstraint=eastwest;" vertex="1" parent="6NoogW3i70NfOqa1rGPb-24">
          <mxGeometry y="30" width="240" height="30" as="geometry" />
        </mxCell>
        <mxCell id="6NoogW3i70NfOqa1rGPb-31" value="test" style="shape=partialRectangle;html=1;whiteSpace=wrap;connectable=0;strokeColor=#82b366;overflow=hidden;fillColor=#d5e8d4;top=0;left=0;bottom=0;right=0;pointerEvents=1;" vertex="1" parent="6NoogW3i70NfOqa1rGPb-30">
          <mxGeometry width="60" height="30" as="geometry">
            <mxRectangle width="60" height="30" as="alternateBounds" />
          </mxGeometry>
        </mxCell>
        <mxCell id="6NoogW3i70NfOqa1rGPb-32" value="3" style="shape=partialRectangle;html=1;whiteSpace=wrap;connectable=0;strokeColor=#d6b656;overflow=hidden;fillColor=#fff2cc;top=0;left=0;bottom=0;right=0;pointerEvents=1;" vertex="1" parent="6NoogW3i70NfOqa1rGPb-30">
          <mxGeometry x="60" width="60" height="30" as="geometry">
            <mxRectangle width="60" height="30" as="alternateBounds" />
          </mxGeometry>
        </mxCell>
        <mxCell id="6NoogW3i70NfOqa1rGPb-33" value="-5" style="shape=partialRectangle;html=1;whiteSpace=wrap;connectable=0;strokeColor=#d6b656;overflow=hidden;fillColor=#fff2cc;top=0;left=0;bottom=0;right=0;pointerEvents=1;" vertex="1" parent="6NoogW3i70NfOqa1rGPb-30">
          <mxGeometry x="120" width="60" height="30" as="geometry">
            <mxRectangle width="60" height="30" as="alternateBounds" />
          </mxGeometry>
        </mxCell>
        <mxCell id="6NoogW3i70NfOqa1rGPb-34" value="15" style="shape=partialRectangle;html=1;whiteSpace=wrap;connectable=0;strokeColor=#d6b656;overflow=hidden;fillColor=#fff2cc;top=0;left=0;bottom=0;right=0;pointerEvents=1;" vertex="1" parent="6NoogW3i70NfOqa1rGPb-30">
          <mxGeometry x="180" width="60" height="30" as="geometry">
            <mxRectangle width="60" height="30" as="alternateBounds" />
          </mxGeometry>
        </mxCell>
        <mxCell id="6NoogW3i70NfOqa1rGPb-35" value="Agregando otro test para cubrir todo fabs:" style="text;html=1;align=left;verticalAlign=middle;resizable=0;points=[];autosize=1;strokeColor=none;fillColor=none;" vertex="1" parent="WIyWlLk6GJQsqaUBKTNV-1">
          <mxGeometry x="560" y="400" width="250" height="30" as="geometry" />
        </mxCell>
        <mxCell id="6NoogW3i70NfOqa1rGPb-36" value="" style="shape=table;startSize=0;container=1;collapsible=0;childLayout=tableLayout;" vertex="1" parent="WIyWlLk6GJQsqaUBKTNV-1">
          <mxGeometry x="560" y="430" width="240" height="30" as="geometry" />
        </mxCell>
        <mxCell id="6NoogW3i70NfOqa1rGPb-37" value="" style="shape=tableRow;horizontal=0;startSize=0;swimlaneHead=0;swimlaneBody=0;strokeColor=inherit;top=0;left=0;bottom=0;right=0;collapsible=0;dropTarget=0;fillColor=none;points=[[0,0.5],[1,0.5]];portConstraint=eastwest;" vertex="1" parent="6NoogW3i70NfOqa1rGPb-36">
          <mxGeometry width="240" height="30" as="geometry" />
        </mxCell>
        <mxCell id="6NoogW3i70NfOqa1rGPb-38" value="test2" style="shape=partialRectangle;html=1;whiteSpace=wrap;connectable=0;strokeColor=#82b366;overflow=hidden;fillColor=#d5e8d4;top=0;left=0;bottom=0;right=0;pointerEvents=1;" vertex="1" parent="6NoogW3i70NfOqa1rGPb-37">
          <mxGeometry width="60" height="30" as="geometry">
            <mxRectangle width="60" height="30" as="alternateBounds" />
          </mxGeometry>
        </mxCell>
        <mxCell id="6NoogW3i70NfOqa1rGPb-39" value="3" style="shape=partialRectangle;html=1;whiteSpace=wrap;connectable=0;strokeColor=#d6b656;overflow=hidden;fillColor=#fff2cc;top=0;left=0;bottom=0;right=0;pointerEvents=1;" vertex="1" parent="6NoogW3i70NfOqa1rGPb-37">
          <mxGeometry x="60" width="60" height="30" as="geometry">
            <mxRectangle width="60" height="30" as="alternateBounds" />
          </mxGeometry>
        </mxCell>
        <mxCell id="6NoogW3i70NfOqa1rGPb-40" value="5" style="shape=partialRectangle;html=1;whiteSpace=wrap;connectable=0;strokeColor=#d6b656;overflow=hidden;fillColor=#fff2cc;top=0;left=0;bottom=0;right=0;pointerEvents=1;" vertex="1" parent="6NoogW3i70NfOqa1rGPb-37">
          <mxGeometry x="120" width="60" height="30" as="geometry">
            <mxRectangle width="60" height="30" as="alternateBounds" />
          </mxGeometry>
        </mxCell>
        <mxCell id="6NoogW3i70NfOqa1rGPb-41" value="15" style="shape=partialRectangle;html=1;whiteSpace=wrap;connectable=0;strokeColor=#d6b656;overflow=hidden;fillColor=#fff2cc;top=0;left=0;bottom=0;right=0;pointerEvents=1;" vertex="1" parent="6NoogW3i70NfOqa1rGPb-37">
          <mxGeometry x="180" width="60" height="30" as="geometry">
            <mxRectangle width="60" height="30" as="alternateBounds" />
          </mxGeometry>
        </mxCell>
      </root>
    </mxGraphModel>
  </diagram>
</mxfile>
